<svg xmlns="http://www.w3.org/2000/svg" width="1920" height="1080" viewBox="0 0 1920 1080"><rect width="1920" height="1080" fill="#11100f"/><rect x="24" y="24" width="1872" height="1032" fill="none" stroke="#785b31" stroke-width="3"/><text x="55" y="85" fill="#d0a65e" font-size="50" font-family="sans-serif" font-weight="700">STEP 2 · 캐릭터 크기·칸 배치 승인 기준</text><text x="58" y="132" fill="#dfd0b5" font-size="24" font-family="sans-serif">플레이어 4번 / 상대 7번 · 동일 스케일 · 캐릭터 높이 칸 폭의 1.4~1.6배 · 발 앵커는 칸 중앙</text><g transform="translate(105 400)"><g fill="#6b6154" stroke="#342f29" stroke-width="4"> <rect x="0" y="0" width="165" height="225" rx="10"/><rect x="170" y="0" width="165" height="225" rx="10"/><rect x="340" y="0" width="165" height="225" rx="10"/><rect x="510" y="0" width="165" height="225" rx="10"/><rect x="680" y="0" width="165" height="225" rx="10"/><rect x="850" y="0" width="165" height="225" rx="10"/><rect x="1020" y="0" width="165" height="225" rx="10"/><rect x="1190" y="0" width="165" height="225" rx="10"/><rect x="1360" y="0" width="165" height="225" rx="10"/><rect x="1530" y="0" width="165" height="225" rx="10"/></g><line x1="0" y1="154" x2="1695" y2="154" stroke="#d0a65e" stroke-width="2" stroke-dasharray="10 7"/><g font-family="sans-serif" font-size="28" font-weight="700" fill="#d0a65e" text-anchor="middle"><text x="82" y="220">1</text><text x="252" y="220">2</text><text x="422" y="220">3</text><text x="592" y="220">4</text><text x="762" y="220">5</text><text x="932" y="220">6</text><text x="1102" y="220">7</text><text x="1272" y="220">8</text><text x="1442" y="220">9</text><text x="1612" y="220">10</text></g><g transform="translate(595 154)" fill="#203f52" stroke="#4f84ae" stroke-width="3"><circle cx="0" cy="-150" r="16"/><path d="M-35-127H35L47-57L22-15H-23L-48-57Z"/><path d="M-26-92L-73-56M27-92l72-38" fill="none" stroke-width="16"/><path d="M-20-18L-30 0M21-18L31 0" fill="none" stroke-width="20"/></g><g transform="translate(1105 154)" fill="#c7c0b3" stroke="#a45145" stroke-width="3"><circle cx="0" cy="-150" r="16"/><path d="M-35-127H35L47-57L22-15H-23L-48-57Z"/><path d="M-26-92L-91-122M27-92l66 39" fill="none" stroke-width="16"/><path d="M-20-18L-30 0M21-18L31 0" fill="none" stroke-width="20"/></g></g><text x="520" y="720" fill="#4f84ae" font-size="30" font-family="sans-serif" font-weight="700">플레이어 · 4번 칸</text><text x="1070" y="720" fill="#a45145" font-size="30" font-family="sans-serif" font-weight="700">상대 · 7번 칸</text><g font-family="sans-serif" font-size="25" fill="#e6ddcc"><text x="80" y="820">✓ 양측 캐릭터는 동일한 스케일</text><text x="80" y="870">✓ 발 중심은 칸 평면 중앙선 교차점</text><text x="80" y="920">✓ 몸체가 인접 칸 중앙을 침범하지 않음</text><text x="990" y="820">✓ 고정 와이드 카메라에서 10칸과 양측 전신 표시</text><text x="990" y="870">✓ 배경 → 전투판 → 캐릭터 → HUD 순서 유지</text><text x="990" y="920">✓ 색상 외에 외곽선·명도·문양으로 점유 구분</text></g></svg>