<svg xmlns="http://www.w3.org/2000/svg" width="1440" height="810" viewBox="0 0 1440 810">
<rect width="1440" height="810" fill="#0b111b"/><rect x="20" y="20" width="1400" height="100" rx="10" fill="#121b2a"/>
<rect x="45" y="40" width="430" height="60" rx="8" fill="#14304a"/><text x="65" y="77" fill="white" font-size="22">플레이어 · HP / 행동력 / 기력 / 내공 / 기세</text>
<rect x="965" y="40" width="430" height="60" rx="8" fill="#4b2029"/><text x="985" y="77" fill="white" font-size="22">상대 · HP / 행동력 / 기력 / 내공 / 기세</text>
<rect x="20" y="140" width="1400" height="300" rx="12" fill="#172131"/><text x="550" y="178" fill="#d8e1ef" font-size="24">10칸 전장 · 현재 거리 2</text>
<g font-size="18" fill="white">
<rect x="100" y="240" width="110" height="110" rx="8" fill="#263346"/><text x="145" y="305">1</text><rect x="224" y="240" width="110" height="110" rx="8" fill="#263346"/><text x="269" y="305">2</text><rect x="348" y="240" width="110" height="110" rx="8" fill="#263346"/><text x="393" y="305">3</text><rect x="472" y="240" width="110" height="110" rx="8" fill="#263346"/><text x="517" y="305">4</text><rect x="596" y="240" width="110" height="110" rx="8" fill="#263346"/><text x="641" y="305">5</text><rect x="720" y="240" width="110" height="110" rx="8" fill="#263346"/><text x="765" y="305">6</text><rect x="844" y="240" width="110" height="110" rx="8" fill="#263346"/><text x="889" y="305">7</text><rect x="968" y="240" width="110" height="110" rx="8" fill="#263346"/><text x="1013" y="305">8</text><rect x="1092" y="240" width="110" height="110" rx="8" fill="#263346"/><text x="1137" y="305">9</text><rect x="1216" y="240" width="110" height="110" rx="8" fill="#263346"/><text x="1256" y="305">10</text></g>
<circle cx="527" cy="225" r="28" fill="#3a86a8"/><circle cx="775" cy="225" r="28" fill="#b54d5b"/>
<rect x="20" y="460" width="1400" height="95" rx="10" fill="#111925"/><rect x="250" y="477" width="350" height="60" rx="8" fill="#203b55"/><text x="355" y="515" fill="white" font-size="24">1수 · 미선택</text>
<rect x="650" y="477" width="350" height="60" rx="8" fill="#482a36"/><text x="755" y="515" fill="white" font-size="24">2수 · 미선택</text>
<rect x="1050" y="477" width="260" height="60" rx="8" fill="#76552a"/><text x="1100" y="515" fill="white" font-size="24">잠금·동시 공개</text>
<g font-size="20" fill="white"><rect x="55" y="580" width="300" height="150" rx="10" fill="#182f47"/><text x="85" y="625">행동 카드 A</text><text x="85" y="665">비용 / 사거리 / 효과</text>
<rect x="385" y="580" width="300" height="150" rx="10" fill="#28354a"/><text x="415" y="625">행동 카드 B</text><text x="415" y="665">사용 불가 이유</text>
<rect x="715" y="580" width="300" height="150" rx="10" fill="#4b2831"/><text x="745" y="625">행동 카드 C</text><text x="745" y="665">합 가능 상태</text>
<rect x="1045" y="580" width="300" height="150" rx="10" fill="#443923"/><text x="1075" y="625">절초 카드</text><text x="1075" y="665">기세 6 / 예약</text></g>
<text x="35" y="785" fill="#9eabbc" font-size="16">사용자 제공 와이어프레임의 좌우 상태·10칸 전장·2수 슬롯·카드 구조를 재구성한 참고 SVG</text></svg>
