<svg xmlns="http://www.w3.org/2000/svg" width="1440" height="900" viewBox="0 0 1440 900">
  <title>STEP 3 pure vector ink-wash mountain fortress battlefield background</title>
  <desc>Low-contrast parchment, layered mountains, mist, fortress walls, cliffs and pines for the ten-tile wuxia battlefield.</desc>
  <rect width="1440" height="900" fill="#d8cfb8"/>
  <rect width="1440" height="900" fill="#70756d" opacity="0.10"/>

  <circle cx="1110" cy="175" r="92" fill="#d1b77b" opacity="0.30"/>
  <circle cx="1110" cy="175" r="66" fill="#e4d7b6" opacity="0.40"/>

  <path d="M0 360 L95 300 L172 325 L275 210 L352 300 L440 245 L535 330 L630 185 L725 292 L812 235 L910 322 L1010 190 L1102 270 L1198 215 L1295 305 L1440 235 L1440 570 L0 570 Z" fill="#6e756d" opacity="0.25"/>
  <path d="M0 430 L135 330 L228 382 L340 255 L458 398 L585 285 L675 375 L790 270 L905 395 L1048 280 L1168 380 L1305 260 L1440 352 L1440 630 L0 630 Z" fill="#545b55" opacity="0.34"/>
  <path d="M0 515 L120 425 L248 478 L365 350 L468 465 L612 365 L728 475 L842 355 L970 488 L1098 375 L1215 468 L1342 350 L1440 425 L1440 675 L0 675 Z" fill="#3f4642" opacity="0.33"/>

  <path d="M170 438 C235 410 305 404 375 420 C440 435 500 425 565 398 C635 370 710 374 775 402 C850 435 915 430 980 402 C1050 371 1130 378 1200 412 C1275 448 1340 444 1440 410 L1440 540 C1330 558 1245 548 1165 525 C1080 500 1000 506 920 535 C835 566 750 567 665 535 C585 506 500 505 415 532 C325 560 235 558 145 532 C95 518 50 515 0 522 L0 470 C55 468 110 458 170 438 Z" fill="#ece6d5" opacity="0.58"/>
  <path d="M0 560 C135 525 255 545 365 580 C470 615 580 612 690 570 C790 532 900 538 1005 580 C1115 625 1240 620 1440 560 L1440 680 C1260 715 1135 704 1010 666 C900 632 790 634 680 670 C565 708 445 710 325 674 C215 640 115 633 0 660 Z" fill="#f2ede0" opacity="0.70"/>

  <path d="M0 690 L145 615 L265 645 L375 585 L505 630 L635 575 L765 625 L900 570 L1035 618 L1170 565 L1305 620 L1440 585 L1440 900 L0 900 Z" fill="#343a36" opacity="0.42"/>
  <path d="M0 735 L120 688 L250 720 L382 655 L515 712 L648 650 L785 710 L915 648 L1050 705 L1188 650 L1320 705 L1440 670 L1440 900 L0 900 Z" fill="#252b28" opacity="0.33"/>

  <g opacity="0.62" fill="#313733">
    <path d="M790 405 L835 372 L882 398 L882 525 L790 525 Z"/>
    <path d="M885 370 L930 330 L978 370 L978 525 L885 525 Z"/>
    <path d="M982 398 L1027 365 L1075 397 L1075 525 L982 525 Z"/>
    <rect x="760" y="500" width="350" height="42"/>
    <rect x="820" y="458" width="225" height="52"/>
    <path d="M748 500 L760 472 L772 500 M795 500 L807 468 L819 500 M842 500 L854 468 L866 500 M889 500 L901 468 L913 500 M936 500 L948 468 L960 500 M983 500 L995 468 L1007 500 M1030 500 L1042 468 L1054 500 M1077 500 L1089 472 L1101 500 Z"/>
  </g>
  <g fill="#d8cfb8" opacity="0.40">
    <rect x="846" y="410" width="16" height="26"/>
    <rect x="916" y="382" width="18" height="28"/>
    <rect x="1004" y="430" width="16" height="26"/>
  </g>

  <g fill="#2e3531" opacity="0.55">
    <rect x="115" y="545" width="10" height="112"/>
    <path d="M120 475 L65 565 L175 565 Z M120 510 L78 590 L162 590 Z M120 535 L88 615 L152 615 Z"/>
    <rect x="250" y="565" width="9" height="95"/>
    <path d="M255 505 L205 585 L305 585 Z M255 535 L218 608 L292 608 Z"/>
    <rect x="1260" y="540" width="10" height="116"/>
    <path d="M1265 462 L1206 565 L1324 565 Z M1265 505 L1218 600 L1312 600 Z"/>
    <rect x="1365" y="565" width="9" height="92"/>
    <path d="M1370 510 L1325 588 L1415 588 Z M1370 540 L1335 615 L1405 615 Z"/>
  </g>

  <path d="M0 748 C150 720 270 735 395 770 C520 805 655 804 785 765 C920 724 1050 730 1168 770 C1275 807 1360 800 1440 782 L1440 900 L0 900 Z" fill="#d8cfb8" opacity="0.25"/>
  <path d="M0 805 C180 770 325 790 470 828 C620 867 770 862 915 820 C1070 775 1225 790 1440 830 L1440 900 L0 900 Z" fill="#efe8d7" opacity="0.20"/>
</svg>
