<svg xmlns="http://www.w3.org/2000/svg" width="960" height="540" viewBox="0 0 960 540"><defs><filter id="rough"><feTurbulence type="fractalNoise" baseFrequency=".025" numOctaves="2" seed="5" result="n"/><feDisplacementMap in="SourceGraphic" in2="n" scale="2"/></filter></defs><g filter="url(#rough)"><g transform="translate(0 0)"><rect width="240" height="270" fill="#d9c8a7"/><path d="M0 190 Q45 125 82 177 Q120 105 156 172 Q200 115 240 184V270H0Z" fill="#817869" opacity=".38"/><path d="M0 213 Q65 170 130 218 Q190 180 240 218" fill="none" stroke="#4e4941" stroke-width="10" opacity=".45"/><g fill="#20201e" stroke="#20201e" stroke-linecap="round" stroke-linejoin="round"><circle cx="126" cy="72" r="12"/><path d="M115 86l28 10 19 38-17 8-17-28-28 27-14-12 25-34z"/><path d="M105 102L57 122M142 99l42-25" stroke-width="13" fill="none"/><path d="M103 137L62 202M143 140l39 56" stroke-width="16" fill="none"/><path d="M72 102Q34 117 16 153M89 92Q45 77 20 83" fill="none" stroke-width="7" opacity=".55"/></g><path d="M18 28 Q120 2 222 30" fill="none" stroke="#55714c" stroke-width="6" opacity=".32"/></g><g transform="translate(240 0)"><rect width="240" height="270" fill="#d9c8a7"/><path d="M0 190 Q45 125 82 177 Q120 105 156 172 Q200 115 240 184V270H0Z" fill="#817869" opacity=".38"/><path d="M0 213 Q65 170 130 218 Q190 180 240 218" fill="none" stroke="#4e4941" stroke-width="10" opacity=".45"/><g fill="#20201e" stroke="#20201e" stroke-linecap="round" stroke-linejoin="round"><circle cx="119" cy="65" r="12"/><path d="M105 80h30l18 65-31 28-36-26z"/><path d="M102 94L55 63M136 94l51-19" fill="none" stroke-width="13"/><path d="M91 138L67 205M139 141l27 64" fill="none" stroke-width="16"/><path d="M46 60Q119 15 197 69M42 72Q119 30 202 80" fill="none" stroke-width="8" opacity=".55"/></g><path d="M18 28 Q120 2 222 30" fill="none" stroke="#355d77" stroke-width="6" opacity=".32"/></g><g transform="translate(480 0)"><rect width="240" height="270" fill="#d9c8a7"/><path d="M0 190 Q45 125 82 177 Q120 105 156 172 Q200 115 240 184V270H0Z" fill="#817869" opacity=".38"/><path d="M0 213 Q65 170 130 218 Q190 180 240 218" fill="none" stroke="#4e4941" stroke-width="10" opacity=".45"/><g fill="#20201e" stroke="#20201e" stroke-linecap="round" stroke-linejoin="round"><circle cx="112" cy="69" r="12"/><path d="M99 82l30 7 27 35-15 14-25-21-31 21-13-14 28-31z"/><path d="M93 98L45 117M130 98l48-36" fill="none" stroke-width="12"/><path d="M83 135L42 186M140 136l51 32" fill="none" stroke-width="15"/><path d="M31 86Q76 65 105 73M27 106Q74 83 104 84" fill="none" stroke-width="7" opacity=".5"/></g><path d="M18 28 Q120 2 222 30" fill="none" stroke="#355d77" stroke-width="6" opacity=".32"/></g><g transform="translate(720 0)"><rect width="240" height="270" fill="#d9c8a7"/><path d="M0 190 Q45 125 82 177 Q120 105 156 172 Q200 115 240 184V270H0Z" fill="#817869" opacity=".38"/><path d="M0 213 Q65 170 130 218 Q190 180 240 218" fill="none" stroke="#4e4941" stroke-width="10" opacity=".45"/><g fill="#20201e" stroke="#20201e" stroke-linecap="round" stroke-linejoin="round"><circle cx="104" cy="72" r="12"/><path d="M91 86l31 4 29 38-15 13-28-25-30 20-13-15 27-27z"/><path d="M85 101L41 130M121 99l68-28" fill="none" stroke-width="12"/><path d="M78 134L43 193M135 138l44 48" fill="none" stroke-width="15"/><path d="M134 93L220 49" stroke-width="5" fill="none"/><path d="M20 146Q96 89 211 67" fill="none" stroke-width="9" opacity=".5"/></g><path d="M18 28 Q120 2 222 30" fill="none" stroke="#8b2f29" stroke-width="6" opacity=".32"/></g><g transform="translate(0 270)"><rect width="240" height="270" fill="#d9c8a7"/><path d="M0 190 Q45 125 82 177 Q120 105 156 172 Q200 115 240 184V270H0Z" fill="#817869" opacity=".38"/><path d="M0 213 Q65 170 130 218 Q190 180 240 218" fill="none" stroke="#4e4941" stroke-width="10" opacity=".45"/><g fill="#20201e" stroke="#20201e" stroke-linecap="round" stroke-linejoin="round"><circle cx="116" cy="66" r="12"/><path d="M99 82h34l24 47-18 13-22-29-34 25-13-16 32-31z"/><path d="M101 99L52 57M132 95l43-48" fill="none" stroke-width="15"/><path d="M85 137L61 207M142 139l29 68" fill="none" stroke-width="18"/><path d="M52 54L177 178" stroke-width="8" fill="none"/><path d="M33 45Q115 119 211 193" fill="none" stroke-width="11" opacity=".48"/></g><path d="M18 28 Q120 2 222 30" fill="none" stroke="#8b2f29" stroke-width="6" opacity=".32"/></g><g transform="translate(240 270)"><rect width="240" height="270" fill="#d9c8a7"/><path d="M0 190 Q45 125 82 177 Q120 105 156 172 Q200 115 240 184V270H0Z" fill="#817869" opacity=".38"/><path d="M0 213 Q65 170 130 218 Q190 180 240 218" fill="none" stroke="#4e4941" stroke-width="10" opacity=".45"/><g fill="#20201e" stroke="#20201e" stroke-linecap="round" stroke-linejoin="round"><circle cx="120" cy="72" r="12"/><path d="M106 86h28l18 51-32 21-33-21z"/><path d="M106 106L73 153M134 106l34 47" fill="none" stroke-width="12"/><path d="M91 150Q120 177 149 150M79 164Q120 201 160 164" fill="none" stroke-width="18"/><path d="M50 124Q120 42 191 124Q120 213 50 124" fill="none" stroke-width="8" opacity=".45"/></g><path d="M18 28 Q120 2 222 30" fill="none" stroke="#b58b38" stroke-width="6" opacity=".32"/></g><g transform="translate(480 270)"><rect width="240" height="270" fill="#d9c8a7"/><path d="M0 190 Q45 125 82 177 Q120 105 156 172 Q200 115 240 184V270H0Z" fill="#817869" opacity=".38"/><path d="M0 213 Q65 170 130 218 Q190 180 240 218" fill="none" stroke="#4e4941" stroke-width="10" opacity=".45"/><g fill="#20201e" stroke="#20201e" stroke-linecap="round" stroke-linejoin="round"><circle cx="119" cy="65" r="12"/><path d="M103 80h32l23 54-22 10-18-32-29 31-16-14 29-36z"/><path d="M101 98L52 113M136 96l49 17" fill="none" stroke-width="14"/><path d="M86 139L52 205M143 139l43 64" fill="none" stroke-width="17"/><path d="M43 147Q119 37 196 147M54 163Q119 66 184 163" fill="none" stroke-width="8" opacity=".48"/></g><path d="M18 28 Q120 2 222 30" fill="none" stroke="#67417a" stroke-width="6" opacity=".32"/></g></g></svg>