<svg xmlns="http://www.w3.org/2000/svg" width="252" height="84" viewBox="0 0 252 84"><defs><filter id="glow"><feGaussianBlur stdDeviation="2" result="b"/><feMerge><feMergeNode in="b"/><feMergeNode in="SourceGraphic"/></feMerge></filter></defs><g transform="translate(9 7)"><path d="M14 4h37v8c0 13-8 17-15 23 7 6 15 10 15 23v8H14v-8c0-13 8-17 15-23-7-6-15-10-15-23z" fill="#e1c485" stroke="#7d5925" stroke-width="4"/><path d="M21 14h23c-2 9-8 12-12 16-5-4-10-7-11-16zm0 43c2-9 8-12 12-16 5 4 10 7 11 16z" fill="#f1d797"/></g><g transform="translate(91 7)" filter="url(#glow)"><circle cx="35" cy="35" r="31" fill="#9b4f12" stroke="#d89a35" stroke-width="5"/><path d="M39 7L17 40h16l-5 23 25-37H37z" fill="#ffd36b" stroke="#fff0aa" stroke-width="2"/></g><g transform="translate(175 7)" filter="url(#glow)"><circle cx="35" cy="35" r="31" fill="#07518c" stroke="#55a5d8" stroke-width="5"/><path d="M10 39c8-24 38-29 48-10 8 16-9 33-25 26-10-4-10-17-1-21 8-4 16 4 12 11 10-8 2-22-11-20-11 1-18 9-23 14z" fill="#a6e3ff" opacity=".95"/></g></svg>